<svg xmlns="http://www.w3.org/2000/svg" viewBox="577.0 1019.0 1906.0 517.9"><path d="M2239 1122.7c0 24.1-.3 75.8-.7 115l-.6 71.2-4.4-3.1c-12.1-8.3-27.2-12.4-42.7-11.5-21.3 1.1-41 10.6-56.2 27-18.2 19.7-26.3 43.4-24.3 71.2 2.9 39.1 27.4 70.5 63.4 81 20.9 6.1 47.8 1.9 60.8-9.5 1.9-1.6 3.7-3 4.1-3 .3 0 .6 2.7.6 6v6h47.7l.6-117.2c.4-64.4.7-153.1.7-197V1079h-49zm-21.6 223.8c20.9 10.2 29.1 37.5 18.1 60.2-4 8.2-9.5 13.6-18.3 17.9-5.2 2.6-6.6 2.9-16.7 2.9-10.2 0-11.4-.2-17.6-3.1-16.2-7.7-25.2-24.4-23.6-43.6 1.1-12.9 9.2-25.9 20.2-32.4 7.5-4.4 12.1-5.4 22.5-5.1 8 .3 10.4.8 15.4 3.2m-349.6-134.2c-21.2 6-27.8 30.9-12.2 45.9 15.7 15 41.9 7.9 48-12.9 5.7-19.6-15.2-38.8-35.8-33M637 1343.5V1473h50v-11l6.5 4.5c14.3 9.7 37 13 56 8 8.7-2.3 25.1-10.6 32-16.2 28.8-23.4 40.7-62.9 30-99.9-11-37.9-44.5-64.6-81-64.7-14.3 0-30.6 5-39.7 12.4l-3.8 3V1214h-50zm97.3 1c12.5 3.2 21.6 10.7 27 22.3 2.7 5.7 3.2 8.1 3.5 16.5.4 8 .1 10.9-1.8 16.5-3.7 11.8-12.2 20.8-23.7 25.3-8.1 3.2-22.6 3.2-29.8 0-16.1-7.1-24.5-20.7-24.5-39.6 0-20.6 11-36 29-40.9 7.2-1.9 13.2-1.9 20.3-.1m732.7-83v47.6l-3.7-3c-9.2-7.4-25.5-12.4-39.8-12.4-26.7.1-53.1 14.9-69.4 39.2-17.5 25.9-20.6 60.5-8 90.1 15.3 36.2 53 58.8 88.6 53 10.3-1.7 18.9-4.8 25.8-9.4l6.5-4.4v10.8h50v-259h-50zm-20.7 85.4c10.3 5 16.8 12.5 20.8 24.3 1.8 5.3 2 8 1.7 16.9-.4 9.1-.8 11.4-3.4 17-9.6 20.3-33.2 28.4-53.9 18.4-8.7-4.1-14.5-10.1-18.8-19.3-3-6.4-3.2-7.3-3.2-18.7s.2-12.3 3.2-18.7c3.6-7.6 10.8-15.5 17.2-18.7 11.6-6 25.5-6.4 36.4-1.2m-536.1-52.8c-11 1.4-20.4 5.4-27.2 11.5l-3.9 3.5-.3-5.8-.3-5.8h-49l-.3 87.7-.2 87.8h50v-48.9c0-45.7.1-49.3 1.9-55.2 3.6-11.2 10.5-19.2 20.6-23.5 4.4-1.9 16.9-2.5 24.3-1.1l4.2.7v-50.7l-4.6-.7c-5.3-.7-6.5-.7-15.2.5m100.1-.1c-37.1 4.9-69 33.5-77.2 69.2-2.9 12.4-3.4 19.3-2.1 30.8 2.3 20.8 10.4 38.1 24.9 53.3 12.2 12.7 27.1 21.5 44.9 26.5 8.5 2.3 11.4 2.6 23.7 2.6 7.7 0 16.8-.6 20.3-1.3 13-2.5 28.3-8.7 38.2-15.4 5.2-3.6 15.4-13 18.1-16.8l1.9-2.6-18.3-14c-10-7.7-18.8-14.3-19.5-14.7-.9-.5-3.1.9-6.5 4.1-6.3 6-14.1 9.8-23.2 11.4-7 1.2-19.2.7-22.1-.9-1.3-.7 8.5-8.1 45.2-34.5 25.8-18.4 47.7-34.2 48.7-34.9 1.8-1.4 1.8-1.7-.8-7.9-8.4-20.1-27.9-39.4-48.6-48.1-13.6-5.7-33.8-8.6-47.6-6.8m20.2 50.1c5.4 1.5 14.5 5.8 14.5 6.9 0 .5-14.2 11-31.5 23.4-36 25.8-33.1 25-32.3 8.3.3-7.7.9-10.3 3.5-15.9 3.6-7.6 10.8-15.5 17.2-18.7 9-4.6 20.5-6.2 28.6-4m594-50.4c-13.1 1.5-25.2 5.9-33 11.9l-4.5 3.4v-12h-49v176h49v-46c0-29.6.4-47.8 1.1-51.2 3.7-17.6 16.7-31 31.6-32.5 5.8-.6 16.2 1.1 20.8 3.4 10.1 5.2 16.6 15.6 18.5 29.6.5 4.4 1 27.3 1 52.3v44.4h49v-45.4c0-26.6.4-47.5 1-50.7 2.5-13.3 10.8-24.7 21.9-30.2 5.9-2.9 7.5-3.2 15.1-3.2 7.2.1 9.5.5 14.8 2.9 10.1 4.7 17.9 15.2 20.2 27.5.6 3.1 1 24.8 1 52.2v46.9h49v-48.9c0-61.7-1-69.6-11.2-90.1-4.4-8.9-6.5-11.8-13.8-19-5.9-5.9-10.7-9.7-15.5-12.2-14.7-7.6-31.8-10.8-47.7-8.8-20.6 2.4-34.8 8.4-46.7 19.6l-7.5 7.1-4.8-5.3c-11.7-12.8-29.5-20.3-51.3-21.7-3.3-.2-7.3-.2-9 0m385.5-.1c-15.2 1.8-28.4 6.4-36.1 12.4l-3.9 3.2V1297h-49v176h48.8l.4-48.8c.4-48.4.4-48.7 2.7-54.7 4.4-11 10.3-17.4 20.5-22.1 11.2-5.1 24.3-5.5 34-1.1 9.4 4.4 14.7 10.4 18.9 21.6 2 5.4 2.1 7.6 2.5 55.3l.3 49.8h49l-.3-52.3-.4-52.2-2.6-9.6c-10.4-38.5-38.1-63.1-73.5-65.2-4.3-.3-9.4-.3-11.3-.1m343.5 0c-18.2 2.2-34.1 11.2-44.7 25.1-11.2 14.9-12.7 34.1-4.1 52.1 1.8 3.6 5.6 8.5 10.3 13.2 10.4 10.4 20.8 15.3 40 19 10.2 1.9 14 5.7 14 13.9 0 11.8-16 14.7-30.1 5.5l-2.6-1.7-19.7 14.2c-10.8 7.9-19.9 14.8-20.3 15.4-.9 1.4 9.9 11.4 17 15.6 24.4 14.5 58.4 14.7 81.7.6 22.4-13.6 32.7-39.8 26-66-5.5-21.5-21.2-34.2-48.5-39.5-22.2-4.2-24.5-5.4-24.5-12.5 0-5.8 3.2-8.5 10.2-8.5 4.7 0 11.9 2.7 13.3 5 .3.5 1.3 1 2.1 1 1 0 31.6-21.3 35.3-24.6.7-.7-2.8-5.1-9-11.2-9.5-9.5-22.8-15.3-37.9-16.5-3-.2-6.8-.3-8.5-.1m-1260.5 3.8c0 .8 94 178 94.8 178.8.4.4 9.5-17.5 20.1-39.7 10.7-22.3 19.7-40.5 20-40.5s9.3 18.3 20 40.6 19.7 40.1 20.1 39.7c1.3-1.5 86-177 86-178.1 0-1.8-46.4-1.7-47.7 0-.5.7-9 19.6-18.8 42.1-9.8 22.4-17.9 40.6-18.1 40.4s-9.3-19-20.2-41.8l-19.9-41.4-23.6-.3c-13.1-.1-23.7-.1-23.7.2 0 .2 5.2 11.3 11.5 24.7s11.5 24.9 11.5 25.6c0 1.4-13.8 31.3-15 32.7-.5.5-10.3-18.1-21.9-41.3L1147 1297h-27c-14.9 0-27 .2-27 .4m758 87.6v88h49v-176h-49z"/></svg>