<svg xmlns="http://www.w3.org/2000/svg" viewBox="577.0 1019.0 1906.0 517.9"><g fill="none" stroke-width="0"><path d="M500 1500v1000h2000V500H500zm1788-224.5V1473h-50v-11.2l-3.4 3c-8.4 7.3-24.4 12.2-40.3 12.2-38.4 0-71.6-27-82.5-67.1-2-7.3-2.3-10.7-2.2-25.4 0-15.6.2-17.7 2.7-25.8 9.8-31.7 32.2-54.3 62.5-62.9 10.3-2.9 28.9-3.1 37.7-.4 8.4 2.6 15.7 5.9 21 9.6l4.5 3.1V1078h50zm-401.3-62.4c19.3 7.3 24.4 31 9.6 45-6.5 6.2-11.6 8.2-20.8 8.2s-13.5-1.5-19.6-7c-7.5-6.8-11.3-18.3-9-26.9 2.3-8.7 9.9-16.8 18.8-20 5.7-2 14.4-1.7 21 .7m-1199.7 48v47l3.3-2.4c4.8-3.6 12.3-7.2 20.7-9.9 10.5-3.3 28-3.2 39.5.1 30.8 9 53.7 32.8 62.2 65 2.3 8.3 2.6 11.7 2.6 25.1 0 12.8-.3 16.9-2.1 23.3-9.2 33.4-33 57.6-64.6 65.7-19.7 5-46 .5-57.9-9.9l-3.7-3.3v11.2h-50v-259h50zm830 82.4V1473h-50v-11.2l-3.7 3.3c-13.4 11.7-42.1 15.4-64.3 8.1-28.4-9.3-49.8-32.8-58.2-64.1-2.9-10.8-3.1-35.3-.4-46.1 4.4-17.4 12.6-32.1 24.5-44.1 11.6-11.7 23-18.4 38.9-23.1 11.2-3.2 28.8-3.2 39.2 0 8.4 2.7 15.9 6.3 20.8 9.9l3.2 2.4V1214h50zm-588.6-49.9c1.4.5 1.6 3.8 1.6 26.6 0 24.4-.1 26-1.7 25.3-3.3-1.4-13.7-2-19.6-1.3-14.1 1.9-24.4 12-28.2 27.9-1.2 5.2-1.5 15-1.5 53.6v47.3h-50v-176h50v11.1l4.3-3.5c5.5-4.5 13.8-8.3 21.9-10.1 6.6-1.4 20.5-1.9 23.2-.9m115.8 2.3c28.8 7.5 50.9 26.3 63 53.5 1.5 3.4 2.4 6.4 2 6.7-.4.4-22.4 16.2-48.9 35.2-48.2 34.5-48.2 34.5-44.6 35.2 6.2 1.1 19.5.6 24.9-1 7.3-2.2 14.2-6.2 19-11.3l4.2-4.4 19.4 14.7c10.6 8.1 19.5 15.1 19.6 15.6.6 1.5-6.6 9.7-13.6 15.5-11.7 9.6-29.1 17.2-45.5 19.9-33.3 5.4-63.3-3.5-85.7-25.5-10-9.8-16.1-18.3-20.5-29-5.8-13.7-7-19.8-6.9-37 .1-13.9.3-16.4 2.7-24.3 10.8-35.3 38.9-59.9 75.2-65.8 8.2-1.3 27.1-.3 35.7 2m607.3-.1c14 3.8 27.7 11.8 34.8 20.3l3.4 4.2 4.3-4.7c4.8-5.2 15-12.3 22.2-15.4 10.9-4.8 21.5-6.7 36.8-6.6 12.1 0 15.8.4 22.5 2.3 29.8 8.7 48.1 30.5 55.1 65.7 1.3 6.3 1.7 18.1 2.1 59.6l.5 51.8H1783v-45.8c0-48.3-.4-53.6-4.9-63.6-2.9-6.8-10.2-13.9-17.1-17-4.7-2.1-7.5-2.7-13.3-2.7-14.8 0-26.3 7.5-33.4 21.9l-3.8 7.6-.3 49.8-.3 49.8h-50.8l-.3-50.8c-.3-35.7-.7-51.7-1.6-54.2-2.1-6.3-7.6-14.3-12-17.7-7.6-5.8-22.2-8.2-31.9-5.3-9.6 2.9-19.7 14-23.3 25.8-1.9 6-2 9.4-2 54.3v47.9h-51v-176h51v10.1l2.9-2c15.4-11 40.4-14.8 60.6-9.3m386.3.2c25.9 7.3 46 27.5 55.1 55.3 4.9 14.8 5.3 19.3 5.8 71.9l.5 49.8H2049v-42.3c0-44.6-.7-56.3-4.1-65.1-2.5-6.9-9.7-14.9-16-18.2-14-7-34.9-3.4-46.4 8.1-2.6 2.5-6.1 7.6-7.8 11.3l-3.2 6.7-.3 49.7-.3 49.8H1921v-176h50v11.1l3.8-3c6.4-5.2 15.5-8.5 31.2-11.5 5.7-1.1 24.7.3 31.8 2.4m332.7-1.5c12.4 2.3 21.6 7.4 31.3 17.1 4.5 4.6 8.2 8.7 8.2 9.1s-6.6 5.5-14.7 11.3c-8 5.8-16.1 11.5-17.8 12.8l-3.2 2.3-5-3.1c-10.6-6.6-21.3-4.2-21.3 4.8 0 5.4 5.4 8.3 19.8 10.8 19.9 3.4 31.1 8.3 40.8 18 10.2 10.2 14.8 22.3 14.7 39.4 0 16.9-5.1 29.2-17.2 41-13 12.8-26 17.9-47.7 18.7-15.8.6-26.1-1.1-37.2-6.3-11.8-5.4-27.4-17.6-25.8-20.2.5-.8 36.6-27.3 40.2-29.5.8-.4 3 .5 5.7 2.3 7.6 5.4 19.4 5.7 24.6.6 2.1-2.2 2.6-3.6 2.6-7.7 0-4.4-.4-5.4-3.2-7.9-1.8-1.6-4.9-3.3-7-3.8s-7.8-1.9-12.6-3c-28.7-6.8-46.7-27.4-46.7-53.6 0-16.9 7-30.3 21.5-41.3 15.1-11.5 31.6-15.4 50-11.8m-1201.8 44.6 20.8 42 7.7-16.6 7.8-16.7-11.5-24.5c-6.3-13.5-11.5-24.9-11.5-25.4s10.1-.9 23.8-.9h23.8l19.9 41.5c10.9 22.8 20 41.4 20.1 41.2.1-.1 8.4-18.7 18.3-41.2l18-41 24.5-.3c13.5-.1 24.6.1 24.6.5-.1 2-86.8 179.4-87.6 179.2-.5-.2-9.4-18.2-19.9-40.1-10.4-21.9-19.3-39.8-19.6-39.8s-9.3 18.2-19.9 40.5c-10.7 22.3-19.8 40.1-20.2 39.7-1.2-1.2-94.8-178.1-94.8-179.2 0-.6 10-1 27.5-1h27.4zM1901 1385v88h-51v-176h51z"/><path d="M2194.9 1344.1c-11 1.2-23.5 9.4-29.3 19.3-6.2 10.6-7.3 26.8-2.6 39.1 3.4 8.9 14.1 19.2 23.1 22.3 9.6 3.4 20.4 3.2 29.4-.4 21.4-8.6 30.5-36.3 19.4-59.1-7.5-15.4-22.1-23.2-40-21.2m-1476 0c-18.9 2.1-33.8 19.8-33.9 40.5-.1 27.2 19.1 45.2 45.3 42.3 17.7-2 33-18.4 34.4-37.1 2.1-28-18.6-48.7-45.8-45.7m705 0c-23.7 2.6-39.8 27.8-33.4 52.4 5.4 20.7 23.1 32.8 44.6 30.4 27.2-3 42.2-34.8 29-61.8-7.2-15-22.5-23-40.2-21m-408 0c-19.6 2.1-35.1 20.6-34.8 41.7 0 3.7.3 7.5.7 8.4.6 1.4 6.3-2.3 31.9-20.5 34.4-24.5 32.8-22.7 23.3-26.9-5.5-2.5-13.7-3.5-21.1-2.7"/></g><path fill="#dcbeab" d="M2251.3 1078.7c7.1.2 18.3.2 25 0 6.7-.1 1-.3-12.8-.3-13.7 0-19.2.2-12.2.3M2133 1449.4c0 .2.8 1 1.8 1.7 1.5 1.3 1.6 1.2.3-.4s-2.1-2.1-2.1-1.3m4 4c0 .2.8 1 1.8 1.7 1.5 1.3 1.6 1.2.3-.4s-2.1-2.1-2.1-1.3"/><path fill="#9b543e" d="M2238.5 1146.5c0 37.4.1 52.6.2 33.7.2-18.9.2-49.5 0-68-.1-18.5-.2-3.1-.2 34.3m-12.5 205.9c0 .2.8 1 1.8 1.7 1.5 1.3 1.6 1.2.3-.4s-2.1-2.1-2.1-1.3m-116.9 36.2c0 1.1.3 1.4.6.6.3-.7.2-1.6-.1-1.9-.3-.4-.6.2-.5 1.3"/><path fill="#924b37" d="M2238.6 1193.7c-.4 63.1-.9 114.9-1.1 115.1s-2.4-1.2-4.9-3.1c-5.3-4.1-17.3-9-26.4-10.8-3.9-.7-10-1-15.6-.6-39.1 2.3-71.8 32.8-79.7 74.4-1.7 9.3-.6 31.8 2 41.8 6.6 24.7 24.2 46.4 46.6 57.5 25 12.4 57.8 10.4 75.3-4.5l4.2-3.7v13.2h47.7l.6-105.9c.3-58.2.3-146.9 0-197l-.6-91.1h-47.4zm-21.4 152.6c31.2 14.1 31 64.4-.1 78.5-8.3 3.7-21.7 4.3-30.4 1.2-16.7-5.9-26.3-19.3-27.4-38.1-.5-7-.2-10 1.5-15.6 3.8-12.5 13-22.4 25.2-27.2 8-3.1 23.1-2.5 31.2 1.2"/><path fill="#944e38" d="M2287.5 1146.5c0 37.4.1 52.6.2 33.7.2-18.9.2-49.5 0-68-.1-18.5-.2-3.1-.2 34.3M2109.2 1382c0 1.4.2 1.9.5 1.2.2-.6.2-1.8 0-2.5-.3-.6-.5-.1-.5 1.3"/><path fill="#be8b76" d="M1659.5 1429c0 24.5.1 34.5.2 22.2.2-12.2.2-32.2 0-44.5-.1-12.2-.2-2.2-.2 22.3"/><path fill="#9e5640" d="M1832.5 1429.5c0 24.2.1 34 .2 21.7.2-12.3.2-32.1 0-44-.1-11.9-.2-1.9-.2 22.3m-737.6 20.2c-1.3 1.6-1.2 1.7.4.4s2.1-2.1 1.3-2.1c-.2 0-1 .8-1.7 1.7"/><path fill="#97503a" d="M1854 1257.4c0 .2.8 1 1.8 1.7 1.5 1.3 1.6 1.2.3-.4s-2.1-2.1-2.1-1.3m-830.2 36.3c.7.3 1.6.2 1.9-.1.4-.3-.2-.6-1.3-.5-1.1 0-1.4.3-.6.6m946.5 9.8c0 3.3.2 4.5.4 2.7s.2-4.5 0-6-.4 0-.4 3.3m-1080.4 49.2c-1.3 1.6-1.2 1.7.4.4.9-.7 1.7-1.5 1.7-1.7 0-.8-.8-.3-2.1 1.3m1091 3c-1.3 1.6-1.2 1.7.4.4s2.1-2.1 1.3-2.1c-.2 0-1 .8-1.7 1.7m-10.4 72.3c0 25 .1 35.3.2 22.7.2-12.5.2-32.9 0-45.5-.1-12.5-.2-2.2-.2 22.8m-1274-11c1 1.1 2 2 2.3 2s-.3-.9-1.3-2-2-2-2.3-2 .3.9 1.3 2m760.4-.3c-1.3 1.6-1.2 1.7.4.4.9-.7 1.7-1.5 1.7-1.7 0-.8-.8-.3-2.1 1.3"/><path fill="#8f4935" d="M727.8 1293.7c1.2.2 3.2.2 4.5 0 1.2-.2.2-.4-2.3-.4s-3.5.2-2.2.4m191 0c1.2.2 3 .2 4 0 .9-.3-.1-.5-2.3-.4-2.2 0-3 .2-1.7.4m99 0c1.2.2 3 .2 4 0 .9-.3-.1-.5-2.3-.4-2.2 0-3 .2-1.7.4m404 0c1.2.2 3.2.2 4.5 0 1.2-.2.2-.4-2.3-.4s-3.5.2-2.2.4m206 0c.6.2 1.8.2 2.5 0 .6-.3.1-.5-1.3-.5s-1.9.2-1.2.5m122.5 0c1.5.2 3.9.2 5.5 0 1.5-.2.2-.4-2.8-.4s-4.3.2-2.7.4m265 0c1.5.2 3.7.2 5 0 1.2-.2 0-.4-2.8-.4-2.7 0-3.8.2-2.2.4m342 0c.9.2 2.3.2 3 0 .6-.3-.1-.5-1.8-.5-1.6 0-2.2.2-1.2.5m-1515.5 4c6.7.2 17.7.2 24.5 0 6.7-.1 1.2-.3-12.3-.3s-19 .2-12.2.3m264.5 0c7.5.2 19.9.2 27.5 0 7.5-.1 1.3-.3-13.8-.3s-21.3.2-13.7.3m87.5 0c6.8.2 17.6.2 24 0 6.4-.1.9-.3-12.3-.3s-18.5.2-11.7.3m125 0c6.8.2 17.6.2 24 0 6.4-.1.9-.3-12.3-.3s-18.5.2-11.7.3m231.5 0c7.1.2 18.3.2 25 0 6.7-.1 1-.3-12.8-.3-13.7 0-19.2.2-12.2.3m313 0c7.1.2 18.3.2 25 0 6.7-.1 1-.3-12.8-.3-13.7 0-19.2.2-12.2.3m70 0c7.1.2 18.3.2 25 0 6.7-.1 1-.3-12.8-.3-13.7 0-19.2.2-12.2.3m465.7 11.7c0 .2.8 1 1.8 1.7 1.5 1.3 1.6 1.2.3-.4s-2.1-2.1-2.1-1.3M930.2 1387c0 1.4.2 1.9.5 1.2.2-.6.2-1.8 0-2.5-.3-.6-.5-.1-.5 1.3m408 0c0 1.4.2 1.9.5 1.2.2-.6.2-1.8 0-2.5-.3-.6-.5-.1-.5 1.3m1067.7 70.7c-1.3 1.6-1.2 1.7.4.4.9-.7 1.7-1.5 1.7-1.7 0-.8-.8-.3-2.1 1.3"/><path fill="#88432f" d="M878.2 1382c0 1.4.2 1.9.5 1.2.2-.6.2-1.8 0-2.5-.3-.6-.5-.1-.5 1.3m51.9-.4c0 1.1.3 1.4.6.6.3-.7.2-1.6-.1-1.9-.3-.4-.6.2-.5 1.3m408 0c0 1.1.3 1.4.6.6.3-.7.2-1.6-.1-1.9-.3-.4-.6.2-.5 1.3m-358 1c0 1.1.3 1.4.6.6.3-.7.2-1.6-.1-1.9-.3-.4-.6.2-.5 1.3m408 0c0 1.1.3 1.4.6.6.3-.7.2-1.6-.1-1.9-.3-.4-.6.2-.5 1.3m-573 4c0 1.1.3 1.4.6.6.3-.7.2-1.6-.1-1.9-.3-.4-.6.2-.5 1.3m968.4 42.9c0 24.2.1 34 .2 21.7.2-12.3.2-32.1 0-44-.1-11.9-.2-1.9-.2 22.3"/><path fill="#86412d" d="M637.1 1294.6c0 1.1.3 1.4.6.6.3-.7.2-1.6-.1-1.9-.3-.4-.6.2-.5 1.3m420.8 122.1c-1.3 1.6-1.2 1.7.4.4.9-.7 1.7-1.5 1.7-1.7 0-.8-.8-.3-2.1 1.3m-420.8 51.9c0 1.1.3 1.4.6.6.3-.7.2-1.6-.1-1.9-.3-.4-.6.2-.5 1.3"/><path fill="#8d4733" d="M1467.5 1261.5c0 26.4.1 37.1.2 23.7.2-13.4.2-35 0-48-.1-13-.2-2.1-.2 24.3m-.2 205.5c0 3.6.2 5 .4 3.2.2-1.7.2-4.7 0-6.5-.2-1.7-.4-.3-.4 3.3"/><path fill="#cda491" d="M992.9 1354.7c-1.3 1.6-1.2 1.7.4.4s2.1-2.1 1.3-2.1c-.2 0-1 .8-1.7 1.7m1320.1 28.7c0 .2.8 1 1.8 1.7 1.5 1.3 1.6 1.2.3-.4s-2.1-2.1-2.1-1.3m-15 71c0 .2.8 1 1.8 1.7 1.5 1.3 1.6 1.2.3-.4s-2.1-2.1-2.1-1.3"/><path fill="#f3e4d2" d="M2171.9 1354.7c-1.3 1.6-1.2 1.7.4.4s2.1-2.1 1.3-2.1c-.2 0-1 .8-1.7 1.7m-.9 60.8c1.3 1.4 2.6 2.5 2.8 2.5.3 0-.5-1.1-1.8-2.5s-2.6-2.5-2.8-2.5c-.3 0 .5 1.1 1.8 2.5m-1386.1 40.2c-1.3 1.6-1.2 1.7.4.4s2.1-2.1 1.3-2.1c-.2 0-1 .8-1.7 1.7"/><path d="M1863.4 1214.4c-20.8 9.7-21.8 36.5-1.8 48.2 9.7 5.7 24 4 32.9-3.8 19.5-17.1 7.4-46.8-19-46.8-5.3 0-8.3.6-12.1 2.4M637.2 1342.2c.1 70.6.3 128.9.6 129.5.3 1 6.1 1.3 24.3 1.3H686v-6c0-3.3.4-6 .8-6 .5 0 1.9 1.2 3.3 2.6 3.3 3.6 12.3 8 21.6 10.6 10.6 2.9 26.5 2.9 37.8-.1 23.9-6.3 44.6-23.5 56-46.5 7.4-14.9 8.9-22.2 8.9-42.1 0-15.6-.3-17.7-2.8-26-9.2-30.5-29.4-52.1-57.6-61.7-9-3.1-10.3-3.3-23.5-3.3-13.1.1-14.5.3-22.8 3.2-4.8 1.7-11.5 5-14.8 7.2-3.4 2.3-6.3 4.1-6.5 4.1s-.4-21.4-.4-47.5V1214h-49zm104.3 4.3c3.4 1.6 8.4 5.3 11.6 8.4 20.7 20.7 15 56.7-11 69.4-6.2 3-7.2 3.2-17.6 3.2-9.7 0-11.6-.3-16.5-2.6-8.4-4-14.4-9.9-18.5-18.2-12.1-24.8-2.2-52.9 21.8-61.8 8.1-3 22.2-2.2 30.2 1.6m726.5-85c0 26.1-.2 47.5-.4 47.5s-3.1-1.8-6.5-4.1c-3.3-2.2-10-5.5-14.8-7.2-8.3-2.9-9.6-3.1-22.8-3.1-12.9 0-14.7.2-23.2 3.1-16.3 5.4-30.2 15-41 28.3-7.3 9-14.8 24.3-17.9 36.5-2.3 9.1-2.5 11.3-2.1 25 .4 11.2 1 17 2.7 23 8.5 31.2 30.7 54.2 60.7 63.1 12 3.5 28.2 3.8 39.6.6 9.3-2.6 18.3-7 21.6-10.6 1.4-1.4 2.8-2.6 3.3-2.6.4 0 .8 2.7.8 6v6h49v-259h-49zm-21.5 85c26.8 12.9 31.4 53.9 8.2 72.9-7.9 6.5-12.8 8-25.2 8.1-10.4 0-11.4-.2-17.6-3.2-29-14.2-31.9-55.9-5.1-74.5 7.7-5.3 13.5-6.9 24.2-6.5 8 .3 10.5.8 15.5 3.2m-541.4-51.4c-6.1 1.2-17.9 6.9-22.3 10.8-2 1.7-3.8 3.1-4.2 3.1-.3 0-.6-2.5-.6-5.5v-5.5h-49v175h49v-46.3c0-49.1.5-54.9 5-64.2 3.2-6.6 9.2-12.8 15.6-16 5.3-2.7 6.9-3 15.4-3 5.2 0 11 .4 12.8.8l3.2.9-.2-25.4-.3-25.3-10-.2c-5.5 0-12 .3-14.4.8m102.4-.4c-5.8.8-20.1 5.5-27.3 9.1-14.2 7-28.7 20.7-37.2 35.1-15.6 26.6-16.2 62.1-1.4 89 24.4 44.3 80.4 61.2 128.3 38.6 5.1-2.5 12.1-6.5 15.6-9 6.4-4.5 16.5-15 16.5-16.9-.1-.6-2.9-3.2-6.3-5.7-3.4-2.6-11.9-9-18.9-14.4l-12.8-9.7-4.3 4.4c-5 5.2-14.5 10.2-22.4 11.8-6.2 1.3-21.8 1-24.5-.6-1.3-.7 7.6-7.5 45.5-34.7 26-18.6 48-34.4 49-35.2 1.8-1.3 1.7-1.7-1.7-8.9-12.3-26.7-36.8-46-65.8-52-7.1-1.5-24.5-2-32.3-.9m30.2 51.7c3.5 1.6 6.7 3.4 7.2 4 .7.9-7.8 7.5-30.3 23.6-17.3 12.2-31.8 22.3-32.2 22.3-1.8.1-2.6-10.6-1.5-17.8 2.6-15.7 12.7-28.2 27.4-33.6 7.9-2.9 21.1-2.2 29.4 1.5m577-50.8c-8.5 1.9-16.5 5.3-22.8 9.9l-4.9 3.5v-11h-49v175h48.9l.3-49.8.3-49.7 3.6-7.5c4.9-10.2 10.5-16.2 18.6-20.1 6.1-2.9 7.2-3.1 15.2-2.7 9.7.5 17.1 3.2 23.4 8.7 4.7 4.2 9.4 13.8 10.7 22.1.5 3.7 1 26.3 1 52.7v46.3h49v-46.8c0-49.9.2-52.9 5.1-62.4 3.2-6.2 11.2-14.1 17.6-17.4 5.2-2.6 6.8-2.9 15.3-2.9 8.4 0 10.2.3 15.1 2.8 11.4 5.5 19 17.5 20.9 32.7.5 4.7 1 27.6 1 51.2v42.8h48.2l-.5-52.8c-.4-48.4-.6-53.4-2.4-61.7-5.4-24-17.1-42.3-34-53.2-3.4-2.2-10.6-5.5-16-7.4-9.6-3.3-10.1-3.3-26.8-3.3-15.6 0-17.7.3-26 2.8-12.5 3.8-21.6 8.9-29.8 16.8l-7 6.6-6.7-6.8c-5.2-5.2-8.7-7.8-16.1-11.4-5.2-2.5-12.1-5.3-15.4-6.2-8.7-2.3-28.3-2.7-36.8-.8m384.8-.1c-9.2 1.9-19 6-24.2 10.2-2.3 1.8-4.4 3.3-4.7 3.3s-.6-2.5-.6-5.5v-5.5h-49v175h48.9l.3-49.3c.3-48.8.3-49.2 2.6-55 6.8-16.8 22.6-26.5 41.6-25.5 17 .9 28.5 10.8 33.1 28.5 1.2 4.7 1.5 14.3 1.5 53.5v47.8h49v-44.5c0-24.9-.5-48.8-1.1-54.1-2.8-25.3-12.1-45-28.2-60-9.2-8.6-16.1-12.7-27.4-16.6-7.6-2.6-10.5-3.1-21.8-3.4-8.7-.2-15.3.1-20 1.1m343 .3c-21.9 6.5-39.5 24.8-42.6 44.1-2 12.5 1.8 27.3 9.5 37.9 9.3 12.6 21.9 19.8 42 24.1 11.7 2.5 16 5.2 17.6 11.1 3.7 13.6-15.2 20.4-28.8 10.3-1.8-1.4-3.7-2.1-4.5-1.7-4.8 3-39.7 28.7-39.7 29.3 0 1.5 8.9 9.1 16.3 13.9 22.3 14.6 55.5 15.8 80.2 2.9 8.7-4.5 20.4-16.5 24.4-25 10.5-22.1 6.8-49.3-8.9-64.7-9.5-9.4-20.5-14.2-41.1-17.9-11.4-2-15.9-3.8-18.3-7.3-2.3-3.2-2-6.2.9-9.6 4.3-5.1 12.8-5 20.5.3 2.4 1.7 4.4 2.4 5.2 1.9 3.5-2.2 32.8-23.7 33.3-24.5 1-1.6-14.7-16.5-20.5-19.4-10.5-5.3-15.8-6.7-28-7.1-9-.3-12.8 0-17.5 1.4m-1248.5 2.8c0 1.1 93.5 177.4 94.1 177.4.3 0 9.3-18.2 20-40.4 10.6-22.3 19.6-40.3 19.9-40.1.4.2 9.4 18.6 20.1 40.9 10.6 22.3 19.4 40.4 19.5 40.3.3-.3 85.5-175.9 86.1-177.5.4-.9-4.7-1.2-23.4-1.2h-23.9l-18 41.1c-9.9 22.6-18.4 41.1-18.9 41.1-.4 0-9.7-18.4-20.4-40.9l-19.7-40.8-23.2-.3c-12.8-.1-23.2 0-23.2.4 0 .3 5.1 11.6 11.4 25l11.5 24.3-7.9 16.7c-4.3 9.1-8 16.8-8.2 17-.2.1-9.8-18.6-21.3-41.6l-21-42h-26.7c-14.8 0-26.8.3-26.8.6m757 86.9v87.5h49v-175h-49z"/><path fill="#d5b19e" d="M1900.5 1385.5c0 48.4.1 68.3.2 44.3.2-24 .2-63.6 0-88-.1-24.4-.2-4.7-.2 43.7m-945.1-64.3-2.9 3.3 3.3-2.9c3-2.8 3.7-3.6 2.9-3.6-.2 0-1.6 1.5-3.3 3.2m1080.6 31.2c0 .2.8 1 1.8 1.7 1.5 1.3 1.6 1.2.3-.4s-2.1-2.1-2.1-1.3m-448.9 31.2c0 1.1.3 1.4.6.6.3-.7.2-1.6-.1-1.9-.3-.4-.6.2-.5 1.3m511.4 45.9c0 24.2.1 34 .2 21.7.2-12.3.2-32.1 0-44-.1-11.9-.2-1.9-.2 22.3m-1345.6-13.8c-1.3 1.6-1.2 1.7.4.4.9-.7 1.7-1.5 1.7-1.7 0-.8-.8-.3-2.1 1.3m646.1-1.3c0 .2.8 1 1.8 1.7 1.5 1.3 1.6 1.2.3-.4s-2.1-2.1-2.1-1.3m-34 38.1c1.3 1.4 2.6 2.5 2.8 2.5.3 0-.5-1.1-1.8-2.5s-2.6-2.5-2.8-2.5c-.3 0 .5 1.1 1.8 2.5"/><path fill="#8b4531" d="M686.5 1261.5c0 26.4.1 37.1.2 23.7.2-13.4.2-35 0-48-.1-13-.2-2.1-.2 24.3m191.8 42c0 3.3.2 4.5.4 2.7s.2-4.5 0-6-.4 0-.4 3.3m.2 125c0 24.7.1 34.7.2 22.2.2-12.6.2-32.8 0-45-.1-12.2-.2-2-.2 22.8M686.3 1467c0 3.6.2 5 .4 3.2.2-1.7.2-4.7 0-6.5-.2-1.7-.4-.3-.4 3.3"/><path fill="#c69883" d="M1850.5 1385.5c0 48.4.1 68.3.2 44.3.2-24 .2-63.6 0-88-.1-24.4-.2-4.7-.2 43.7m-141 43c0 24.7.1 34.7.2 22.2.2-12.6.2-32.8 0-45-.1-12.2-.2-2-.2 22.8"/><path fill="#ebd7c5" d="m788.4 1452.2-1.9 2.3 2.3-1.9c2.1-1.8 2.7-2.6 1.9-2.6-.2 0-1.2 1-2.3 2.2"/><path fill="#e4cbb8" d="M1587.3 1303c0 3 .2 4.3.4 2.7.2-1.5.2-3.9 0-5.5-.2-1.5-.4-.2-.4 2.8m.2 126c0 24.5.1 34.5.2 22.2.2-12.2.2-32.2 0-44.5-.1-12.2-.2-2.2-.2 22.3"/><path fill="#af715c" d="M1537.4 1320.5c0 12.6.2 17.7.3 11.2.2-6.5.2-16.8 0-23-.1-6.2-.3-.9-.3 11.8m.1 89c0 35.2.1 49.5.2 31.7.2-17.8.2-46.6 0-64-.1-17.4-.2-2.9-.2 32.3"/><path fill="#b77e69" d="M2192.3 1293.7c1.5.2 3.7.2 5 0 1.2-.2 0-.4-2.8-.4-2.7 0-3.8.2-2.2.4"/><path fill="#a8654f" d="M2136.9 1317.7c-1.3 1.6-1.2 1.7.4.4.9-.7 1.7-1.5 1.7-1.7 0-.8-.8-.3-2.1 1.3"/><path fill="#99523c" d="M2109.1 1385.6c0 1.1.3 1.4.6.6.3-.7.2-1.6-.1-1.9-.3-.4-.6.2-.5 1.3m61.4 30.4c1 1.1 2 2 2.3 2s-.3-.9-1.3-2-2-2-2.3-2 .3.9 1.3 2m67.8 51c0 3.6.2 5 .4 3.2.2-1.7.2-4.7 0-6.5-.2-1.7-.4-.3-.4 3.3"/><path fill="#a05842" d="M2287.5 1395c0 43.2.1 60.8.2 39.3.2-21.6.2-57 0-78.5-.1-21.6-.2-4-.2 39.2"/></svg>