<svg xmlns="http://www.w3.org/2000/svg" viewBox="960.9 1179.0 1194.5 808.7"><path d="M1882 1295.5v66.5h-47.6l-19.8 45.2c-10.9 24.9-20.1 45.6-20.5 46-.3.4-10.5-19.9-22.6-45.2l-22-46h-25.7c-14.2 0-25.8.4-25.8.8 0 .5 4.8 11 10.6 23.3s11.5 24.5 12.6 27.2l2.1 4.7-8.4 18c-4.6 9.9-8.6 18-8.9 18s-10.9-20.7-23.5-46l-23-46h-29.8c-28.1 0-29.9.1-29.3 1.7 1 2.6 102.6 194.7 103.5 195.6.4.4 10.4-19.5 22.2-44.2s21.7-44.7 22-44.5c.3.1 10.1 20.4 21.9 44.9 11.7 24.5 21.7 44.2 22 43.8.4-.4 20.7-42 45-92.3s44.4-91.7 44.6-91.9.3 46.7.3 104.3c0 57.5-.2 104.6-.4 104.6-.3 0-2.7-1.6-5.3-3.5-6.9-4.9-16.4-9.1-26.2-11.6-12-3.1-30.8-2.4-43 1.6-16.9 5.5-29.7 13.3-41.6 25.7-20.8 21.6-30.5 47.9-29.1 78.7 1.5 31.5 15.3 59.1 39.1 78 16.9 13.5 40.2 21 60.6 19.7 16.8-1 34.6-7.3 41.4-14.5 1.7-1.7 3.3-3.1 3.8-3.1.4 0 .8 2.9.8 6.5v6.5h55v-84.3c0-46.3-.3-167.6-.7-269.5l-.6-185.2H1882zm-26.7 329.5c32.7 12.4 38.7 62.6 10.2 84.2-6.9 5.2-14.5 7.9-24.1 8.5-14.2 1-25.9-3.4-35.8-13.4-18.5-18.7-18.1-51.5 1-69.7 5.3-5.2 12.2-9 19.5-11.1 7.6-2.1 21.6-1.4 29.2 1.5m-757.1-212.3.3 142.8h54l.3-6.3.3-6.3 3.7 3.2c4.7 4.1 16.1 9.4 24.9 11.5 14 3.4 34.2 1.9 49.1-3.6 22.9-8.6 43.2-27.6 53.8-50.5 17.7-38.4 10.7-84.6-17.5-114.7-10.1-10.7-17.2-16-29.4-21.8-12.4-5.8-20.2-7.9-32.7-8.7-11-.7-22.1 1.2-32.9 5.4-7 2.8-16.3 8.3-17.7 10.5-.5.7-1.1-21.3-1.4-51.2l-.5-52.5-27.3-.3-27.2-.2zm111.2 2.4c18.1 6.1 29.6 23.1 29.6 43.9 0 13.1-3.7 23.3-11.8 32.2-16.6 18.4-47.3 19.1-63.9 1.5-8.8-9.3-12.7-19.7-12.7-34.2.1-13.4 3.8-23.4 12.4-32.9 11.3-12.2 29.1-16.3 46.4-10.5m183.2-55.5c-8.6 1.9-17.5 6.2-23.8 11.5l-4.8 4V1362l-27.2.2-27.3.3v193h54l.5-55.5c.5-48.3.7-56 2.2-59.6 6.6-16.6 14.5-24 28.7-27 7-1.4 18.4-.9 23.4 1.1 1.6.7 1.7-.9 1.5-27.6l-.3-28.4-10-.2c-5.9-.1-12.9.5-16.9 1.3m108.6.4c-47.5 10.3-80.2 50.4-80.2 98.2.1 52.7 39.2 94.7 94 100.9 25.1 2.9 54.7-4.8 75.5-19.6 7-5 19.8-18.1 19.2-19.8-.2-.6-9.8-8.4-21.3-17.3l-20.9-16.1-3.7 4.2c-7.5 8.5-17.1 12.9-32 14.7l-8.7 1.1-3.8-3.5-3.9-3.4 50.9-36.4c47.8-34.3 50.8-36.6 50.2-39-.4-1.4-2.4-6.1-4.6-10.5-11.1-22.1-31.1-40-55.4-49.3-15-5.8-39.3-7.6-55.3-4.2m34.5 55.1c6.1 2.1 11.6 5.6 10.8 6.9-.6.9-67 48.3-68.4 48.8-1.2.4-2.1-4.9-2.1-12.2 0-27.2 22.2-48.3 48.4-45.9 3.3.3 8.4 1.4 11.3 2.4m481.3 142.8c-24 6.8-42.8 23.6-49 44-3.8 12.2-2.3 29.2 3.6 41.7 8.4 17.8 28 32.1 51.2 37.3 10.8 2.4 14 3.9 17.6 8.1 3.5 4.2 3.7 12.3.4 16.5-5.9 7.5-20.5 7.1-31-.9l-4.4-3.4-24.9 16.5-24.8 16.4 6.4 6.6c18.3 18.6 38.8 26.7 67.4 26.6 10 0 15-.6 21.5-2.2 27-6.9 46.1-25.1 52.6-50.1 2.3-8.5 2.3-25.2.1-34.3-6.1-25.2-25.4-40.6-59.8-47.7-17-3.5-21.9-6.5-21.9-13.2 0-5.2 1.5-7.7 5.5-9.4 6.3-2.6 13-1.2 20 4.2 2.6 1.9 5.1 3.2 5.8 2.8 6.9-4.1 40.7-26.8 40.7-27.4 0-1.6-7.8-10.7-14.5-16.8-12.1-11-25.5-16.1-44.5-16.8-9.2-.3-12.8 0-18 1.5m-777 21.6c-11.6 2.4-21.4 6.7-26.7 11.8l-3.3 3.1V1582h-50v178h50v-46.4c0-27.3.4-48.5 1-51.7 2.5-13.2 10.9-24.7 21.8-30.1 6-3 7.4-3.3 14.7-3.1 20.2.4 32 11.3 35.5 32.5.6 3.6 1 25.9 1 52.5v46.3h50v-46.5c0-30 .4-48.3 1.1-51.7 1.9-9.1 6.3-17.1 12.9-23.1 7.7-7.2 14.7-10 25.1-10 16.8 0 29.7 10.9 34.4 29 1.2 4.7 1.5 14.4 1.5 54v48.3h50v-48.8c0-51.7-.6-61.1-4.6-75-4.6-15.7-11.5-27.6-22.1-38-8.3-8.1-20.1-14.5-32.8-17.9-10.4-2.7-34-2.4-45 .6-13 3.5-25.8 10.4-33.5 18l-6.6 6.6-6.5-6.5c-3.6-3.6-9.1-8-12.2-9.9-16-9.4-37.9-13.2-55.7-9.6"/><path d="M1622.2 1579.1c-8.8 1.5-20.3 5.8-26.4 9.9l-5.8 3.8V1582h-51v178h50.9l.3-50.8.3-50.7 3.2-6.7c5.9-12.4 17-20.5 31.6-22.8 16.6-2.6 31.8 4.4 38.7 17.9 4.8 9.4 5 12.4 5 64.3v48.8h50.1l-.3-53.3-.4-53.2-2.6-9.6c-9.6-35.2-32.8-58.4-64.6-64.5-8.1-1.5-20.7-1.7-29-.3M1473 1671v89h50v-178h-50zm-377.8-71c-4.4 2.3-6.9 4.3-9.1 7.6-13 19.7 8.1 44.1 29.4 34 6-2.8 8.7-5.6 11.4-11.6 5.8-12.7-1-27.1-14.8-31.8-5.6-1.9-10.4-1.4-16.9 1.8m-67.5-.6c-6 1.6-9.3 4-13.2 9.5-2.5 3.6-3 5.4-3.3 11.6-.4 6.6-.1 7.9 2.4 12.5 1.7 3.2 4.6 6.4 7.4 8.3 4.2 3 5.1 3.2 13 3.2s8.8-.2 13-3.2c6.5-4.4 10-11.3 10-19.2 0-3.4-.6-7.6-1.3-9.4-4.5-10.7-16.6-16.4-28-13.3m-1.2 70.3c-4.3 1.2-10.2 6.3-12.8 11.1-3.6 6.6-3.8 15.8-.4 22.2 8.6 16.3 32.8 16.3 41.4 0 5.3-10 1.8-23.8-7.6-30.3-3.8-2.6-5.5-3.1-11.5-3.3-3.9-.2-8 0-9.1.3m68.6 12.9c-8.9 4.5-13.8 13.3-12.8 22.9.6 6.2 2.5 10.1 6.8 14.4 5.1 5.1 8.6 6.5 16.5 6.6 6.1 0 7.7-.4 12-3 16-9.9 14.8-33.3-2.1-41.1-6.9-3.3-13.6-3.2-20.4.2m-69.4 57.8c-9 3.3-14.6 11.6-14.7 21.9 0 13.8 9.3 23.1 23 23.1s23-9.3 23-23.1c-.1-16.5-15.7-27.4-31.3-21.9m73.1 10.5c-5.1 1.7-9.6 5.2-12.7 9.7-13 19.7 8.1 44.1 29.4 34 6-2.8 8.7-5.6 11.4-11.6 5-10.9.3-24.8-10.1-30.1-4.6-2.3-13.8-3.3-18-2m-70.8 59c-11.1 3.6-17 11.5-17 22.8 0 6.7 2.3 12.4 6.6 16.6 4.9 4.9 8.2 6.2 16.4 6.2s11.5-1.3 16.4-6.2c8.5-8.4 8.9-24.1.8-32.6-5.5-5.8-16.5-9-23.2-6.8m69 12.6c-5.5 2.5-9.9 6.3-12 10.6-8.1 15.9 2.8 34.2 20.5 34.2 7.1.1 11.8-1.9 16.9-7 10.3-10.4 8.4-26.9-4.2-35.7-3.6-2.5-5.4-3.1-11-3.3q-6.75-.3-10.2 1.2m-1.8 71.1c-21 10.4-15.6 40.5 7.8 43.9 17.8 2.5 31.4-16.4 23.6-33.1-5.6-12-19.4-16.8-31.4-10.8"/></svg>