<svg xmlns="http://www.w3.org/2000/svg" viewBox="960.9 1179.0 1194.5 808.7"><g fill="#fff" stroke-width="0"><path d="M500 1500v1000h2000V500H500zm1437.4-22.8c.4 137.1.6 258.7.4 270.3l-.3 21-28.2.3-28.3.2v-13.4l-3.7 3.6c-4.6 4.5-14.2 9.1-24.8 11.9-10.1 2.6-28.5 2.9-39.4.5-47.8-10.5-81.1-57.5-77.8-109.6 2.8-43.4 32.9-81.4 73.8-93 4.7-1.4 11.8-2.3 19.4-2.7 10.3-.5 13.2-.3 21 1.7 10.6 2.6 19.9 6.6 26.6 11.5l4.9 3.5v-102.7c0-56.4-.2-102.4-.4-102.2s-6.9 13.9-14.8 30.4c-8 16.5-19.2 39.7-24.9 51.5s-19 39.2-29.5 60.8c-10.4 21.7-19.4 39.4-19.8 39.3-.5 0-10.3-19.8-21.9-44-11.5-24.3-21.3-44.1-21.7-44.1s-10.3 20-22 44.5-21.7 44.2-22.1 43.8c-.7-.8-104.9-197.4-104.9-198 0-.2 13.7-.3 30.5-.3h30.5l22.7 45.5c12.6 25 23 45.5 23.3 45.5.3-.1 4.2-8 8.7-17.6l8.2-17.5-12.5-26.7c-6.9-14.7-12.8-27.3-13.1-28-.4-1 4.9-1.2 26.2-1l26.7.3 21.7 45.3c13.9 29.2 21.9 44.8 22.4 44 .5-.7 9.5-21.1 20.1-45.3l19.3-44 23.6-.3 23.7-.2v-134h55.8zM1153 1321.9v51.9l6.5-4.3c3.6-2.3 10.9-5.8 16.3-7.6 9.3-3.2 10.3-3.4 24.7-3.4 17.4 0 22.8 1.2 37.4 8.1 28.2 13.3 47.9 39.1 54.7 71.4 2.5 11.8 2.5 32.8 0 43.4-7.3 31.4-25.8 55.6-52.7 68.9-22.9 11.3-48.6 12.7-70.2 3.7-4.2-1.7-9.7-4.7-12.2-6.6l-4.5-3.5v12.1h-55v-286h55zm267.8 65 .2 28.3-2.7-.6c-1.6-.4-6.9-1-11.9-1.3-7.8-.4-10.2-.2-15.8 1.7-8.5 2.8-16.5 9.9-20.7 18.3-5.5 10.8-5.9 15.7-5.9 71.8v50.9h-55v-194h55v12.1l4.3-3.4c11.2-9.2 22.4-12.7 39.7-12.4l12.5.2zm126.3-26.1c31.3 8.7 55.7 29.6 67.9 58.5 3 6.8 3 7.2 1.3 8.5-1 .7-23.9 17.1-50.9 36.4l-49.1 35.1 3.2 2.8c2.8 2.5 4.1 2.9 9.2 2.9 12.4 0 23.4-4.4 32.7-13.1l6.5-6 21.5 16.6c11.9 9.2 21.6 17.1 21.6 17.6 0 .6-3.7 4.7-8.2 9.3-13.4 13.5-29.3 22.2-49.6 27.3-9.4 2.4-12.6 2.8-26.7 2.8-21.1 0-32.5-2.5-49-10.8-25.9-12.9-43.2-32.5-52-59-17.6-52.9 11.7-110.4 64.9-127.3 11.9-3.7 16.7-4.3 33.6-4 11.9.3 17.3.8 23.1 2.4m504.8 197.3c10.4 2.6 20.5 7.9 27.9 14.5s15.8 17.2 14.6 18.4c-.5.4-10.2 6.9-21.5 14.3l-20.6 13.5-4.3-3.4c-13.2-10.5-30-5.1-25 8 1.4 3.7 7.6 6.4 21.2 9.2 21.2 4.4 34.1 10.5 45.1 21.5 18 18 22 49.1 9.5 74.9-5.7 11.8-17.6 23.7-29.8 29.8-13.7 6.8-21.7 8.5-40.5 8.6-13.3 0-17.5-.3-24.6-2.1-10.9-2.8-23.6-8.7-31.4-14.6-6.4-4.8-16.5-14.9-16.5-16.5 0-.9 48.3-33.2 49.6-33.2.3 0 2.2 1.3 4.2 3 4.1 3.3 10.2 5.7 15.3 6.1 7.6.5 9.9-.1 13.5-3.4 6.4-5.8 5.5-15.4-1.9-20.4-1.8-1.3-8.6-3.6-15-5.3-33.4-8.4-53.3-29.2-56.1-58.5-1-10.1.8-19.5 5.5-29.4 8.8-18.2 30-33.2 52-37 7.1-1.2 19.5-.3 28.8 2m-779.9 21.4c15.6 3.7 27.3 9.9 36.9 19.8l5.3 5.5 5.8-5.7c13.8-13.5 30.8-20 54.7-20.8 12.4-.5 15.6-.3 23.8 1.7 26.6 6.1 44.7 22.9 54.5 50.6 5.8 16.5 6.3 21.8 6.7 78.6l.5 51.8H1409v-47.3c0-51.1-.4-55.7-5.5-65.6-9.5-18.8-32.8-24.8-50.5-12.9-7.4 4.9-13.3 12.9-16 21.6-1.9 6-2 9.4-2 55.3v48.9l-25.7-.2-25.8-.3-.5-52c-.6-55-.5-53.8-5.3-63.1-2.5-4.8-8.8-10.5-14.7-13.3-4.8-2.3-6.8-2.6-15.5-2.6-8.9 0-10.6.3-15 2.7-6.8 3.5-14 11.5-17.8 19.6l-3.2 6.7-.5 51-.5 51h-51l-.3-89.3-.2-89.2h52v10.3l2.3-2c4.1-3.8 19.4-10.2 27.7-11.6 6.4-1.1 25-.6 31 .8m383.5.4c16.4 4.3 27.2 10.8 38.7 22.9 11.7 12.5 20.2 29.9 23.9 48.9.7 3.6 1.3 25.3 1.6 57.5l.5 51.8H1669v-47.8c0-50.8-.5-56.3-5-65.2-3.3-6.4-10.4-13.5-16.3-16.1-4.4-2.1-6.8-2.4-16.2-2.4-10.3 0-11.4.2-17.7 3.2-11.9 5.6-19 14.1-22.3 26.8-1.2 4.9-1.5 14-1.5 53.7v47.8h-51v-179h51v11.4l2.8-2.5c5.3-4.9 14.3-8.9 25.7-11.4 9.2-2.1 28.6-1.8 37 .4m-131.5 91.6v89.5h-51v-179h51zm-407.2-71.8c17.4 8.2 17.2 33.3-.3 42.6-6.3 3.3-16.5 3.1-22.8-.6-12.3-7.3-15.9-22.9-8.1-34.7 3.1-4.7 8-7.9 14.4-9.6 5.6-1.6 10-1 16.8 2.3m-74.5-.6c5.3 1.4 11 6.9 13.7 13.1 4.8 11.1.8 24-9.4 30.3-4.4 2.7-5.8 3-12.6 3s-8.2-.3-12.6-3c-9.2-5.7-13.4-17.2-10.5-28.2 1.5-5.4 8.4-13 13.6-14.8 4.8-1.7 12.6-1.9 17.8-.4m4.3 72.5c3 1.8 6 4.8 7.9 7.9 2.7 4.4 3 5.7 3 12.9 0 7-.4 8.6-2.6 12.1-3.4 5.2-5.4 6.9-10.9 9.4-8.1 3.7-20 2-26.4-3.7-4.1-3.7-6.9-9.5-7.4-15.7-.8-10.8 3.8-19.3 13-23.9 7.4-3.8 16.3-3.4 23.4 1m67.7 9.4c11.4 4.3 17.6 15.9 14.7 27.9-2.3 9.6-9.1 16.2-18.6 18-15.3 2.9-28.8-8.1-28.8-23.4 0-10.6 5.4-18.8 15-22.5 6.3-2.5 11.1-2.5 17.7 0m-72.7 58.5c16.2 4.8 21.9 26.4 10.2 39.1-2.2 2.4-5.9 5-8.5 6-9.7 3.7-20.3 1.4-27.1-6-8.9-9.7-8.3-24.6 1.4-34 6.1-6 14.9-7.8 24-5.1m74.1 12.1c8.7 3.1 15.3 15.2 13.8 25.2-1.9 12.8-11 20.6-24 20.7-5.9 0-7.7-.4-11.8-2.8-12.8-7.6-16.1-23.7-7.2-35.9 6.6-9 17-11.5 29.2-7.2m-71.1 59.3c5.1 2.3 11.1 9.3 12.5 14.5 1.4 5.1.6 14.3-1.5 18.3-4.2 8.2-12 12.7-21.6 12.7-16.8 0-27.6-14.8-23-31.5 1.3-4.8 7.5-11.8 12.4-14 2.7-1.2 6.4-1.9 10.6-1.9s7.9.7 10.6 1.9m70.9 11.5c9.6 4.5 13.8 11.1 13.9 21.6.1 14-9.8 24-23.9 24-9.8 0-17.2-4.6-21.7-13.4-4.1-8-1.9-21.7 4.3-27.5 7.6-7 18.5-8.9 27.4-4.7m1.1 70.4c17.6 9.1 17.5 34.8-.3 42.9-14.9 6.8-31.4-1.2-34.3-16.7-2.3-12.1 4.1-23.3 15.7-27.6 5-1.9 13.8-1.2 18.9 1.4"/><path d="M1832 1623.2c-8.1.9-18.9 6.1-24.9 12-9.7 9.5-14.1 20.3-14.1 34.8 0 19.7 9.1 34.7 26 42.9 7.3 3.5 7.8 3.6 19.5 3.6 11.4 0 12.3-.2 18.8-3.2 15.9-7.6 25.7-23.8 25.7-42.8 0-30.2-22-50.6-51-47.3m-650-208.6c-7.5 2-12.6 5.2-18.8 11.8-9.2 9.7-12.8 20.6-11.9 36.1.8 14.8 6.4 26 17.1 34.1 8.3 6.3 17.1 8.8 28.8 8.2 7.6-.5 10-1.1 16.2-4.1 19.5-9.7 29.2-30.8 24.1-52.4-2.2-9.2-5.2-14.9-11.6-21.8-11.2-11.9-27.5-16.3-43.9-11.9m325.8.3c-16.5 5.3-28 19-30.8 36.5-1.1 7-.4 18.6 1.1 18.6.9 0 67.8-47.6 68.2-48.5.4-1-6.2-4.4-12.3-6.5-7.5-2.5-18.4-2.6-26.2-.1"/></g><path fill="#b17447" d="M1895.3 1228.7c7.5.2 19.9.2 27.5 0 7.5-.1 1.3-.3-13.8-.3s-21.3.2-13.7.3"/><path fill="#cea17b" d="M1881.5 1295.5c0 36.8.1 51.8.2 33.2.2-18.6.2-48.8 0-67-.1-18.3-.2-3.1-.2 33.8m0 130.5c0 27.8.1 39.1.2 25.2.2-13.8.2-36.6 0-50.5-.1-13.8-.2-2.5-.2 25.3"/><path fill="#a06940" d="M1882 1406.5c0 97.6-.3 177.5-.6 177.5-.4 0-2.8-1.6-5.4-3.5-6.5-4.8-15.9-8.9-26.1-11.5-7.2-1.9-10.2-2.1-20.9-1.7-24.7 1-44.5 9.9-62.5 28.1-13.7 13.8-22.9 30.3-27.8 49.5-1.8 7.2-2.1 11.3-2.1 25.1.1 14.3.4 17.7 2.6 26.1 10.3 38.4 37.6 66.2 73.2 74.3 23.4 5.3 51.1.2 64.5-11.9 2.1-1.9 4.1-3.5 4.5-3.5.3 0 .6 2.9.6 6.5v6.5h55v-83.3c0-45.9-.3-167.1-.7-269.5l-.6-186.2H1882zm-24.7 219.3c15.9 7.4 25.1 21.8 26.4 41.2 1.3 20.9-8.7 39-26.3 47.2-12.2 5.7-30.5 4.9-42.2-1.9-14.7-8.6-23.2-24.2-23.2-42.9 0-18.8 9.5-34.7 25.6-42.8 7.5-3.8 11.8-4.6 23-4.2 8.8.2 10.9.6 16.7 3.4m-759.1-27c-16.1 5.8-21.2 25.6-9.6 37.6 5.4 5.6 8.9 7 17 7.1 6.1 0 7.7-.4 12-3 12.2-7.6 14.9-23.7 5.7-34.5-6.7-7.8-15.9-10.4-25.1-7.2m-69.2.3c-10.1 1.9-18 12-18 22.8.1 13.1 9.8 23 22.8 23.1 17.5.1 28.5-17.9 20.7-33.7-4.8-9.6-14.5-14.2-25.5-12.2m-4.5 71.8c-5 2.2-10.9 8.6-12.5 13.6-2.1 6.3-.8 15.5 2.9 20.8 8.8 12.9 28.9 12.9 38.1.1 2.6-3.7 3.3-5.8 3.7-10.8.7-7.9-.8-12.6-5.6-17.9-4.7-5.2-10.2-7.7-17.1-7.7-3.2 0-7.2.8-9.5 1.9m74 10.3c-12.6 4.5-19.2 17.4-15.1 29.1 3.7 10.2 11.7 16 22.1 16.1 18.1.1 29.2-19.3 20-34.9-5.3-9.1-17.4-13.7-27-10.3m-72.1 58.9c-1.7.5-5.2 2.7-7.7 4.9-5.9 5.3-8.1 10.8-7.5 19.4.5 8 3.9 13.5 11.2 18 4.1 2.6 5.8 3 11.6 3s7.5-.4 11.6-3c7.1-4.3 10.7-10.3 11.2-18.2.6-8.4-1.6-14-7.5-19.2-6.4-5.6-14.5-7.4-22.9-4.9m73 11c-7.9 1.8-15.5 10.7-17 19.7-.9 5.8 1.8 14.1 6.1 18.5 5.5 5.7 9 7.1 17.1 7.2 6.1 0 7.7-.4 12-3 3-1.9 6-4.9 7.9-7.9 7.6-12.4 1-30-12.9-34.1-5.5-1.7-7.2-1.7-13.2-.4m-72.5 59.4c-9.4 3-15.9 11.8-15.9 21.8 0 9.3 3.2 15.2 11.5 20.6 3.4 2.2 5.1 2.6 11.5 2.6s8.1-.4 11.5-2.6c8.3-5.4 11.5-11.3 11.5-20.6 0-10.2-6.5-18.9-16.4-21.8-6-1.8-7.7-1.8-13.7 0m68 13.3c-21.5 11.1-13.6 43.4 10.6 43.5 13.5 0 24.7-12.2 23.2-25.2-2-16.8-19-26-33.8-18.3m3 68.6c-12 4.3-18.6 17.4-14.5 28.9 2.4 6.6 5.8 10.6 11.4 13.4 13.1 6.4 28.3.4 32.8-13.1 6-18.1-11.8-35.6-29.7-29.2"/><path fill="#be8456" d="M1936.5 1352.5c0 68.2.1 96 .2 61.7.2-34.3.2-90.1 0-124-.1-33.9-.2-5.9-.2 62.3m-53.4 322.1c0 1.1.3 1.4.6.6.3-.7.2-1.6-.1-1.9-.3-.4-.6.2-.5 1.3"/><path fill="#98633d" d="M1152.5 1323c0 28.9.1 40.7.2 26.2.2-14.4.2-38 0-52.5-.1-14.4-.2-2.6-.2 26.3m-.2 226c0 3.6.2 5 .4 3.2.2-1.7.2-4.7 0-6.5-.2-1.7-.4-.3-.4 3.3m257.2 166.5c0 24.7.1 34.7.2 22.2.2-12.6.2-32.8 0-45-.1-12.2-.2-2-.2 22.8"/><path d="M1099 1412.5V1555h53v-13.1l4.3 3.5c2.4 2 7.9 5.2 12.1 7.2 21.2 9.8 48.3 8.7 71.1-2.8 20.4-10.3 34.8-25.4 45-47.2 7.2-15.2 9-24.2 8.9-43.6-.1-14.4-.4-17.7-2.6-26.1-9.9-37-37.4-64.6-72.4-72.5-20.6-4.7-44.7-.3-60.5 11.1-2.7 1.9-5.1 3.5-5.4 3.5s-.5-23.6-.5-52.5V1270h-53zm105.9 1c8.8 2.1 15.1 5.8 21.7 12.6 17.1 18 17 49-.1 66.2-19.6 19.7-52.8 17.4-67.9-4.6-5.9-8.7-7.9-15.6-8-28.2-.1-15.9 2.8-23.6 12.9-34.4 10.4-11.1 25.5-15.3 41.4-11.6m193.6-54.8c-11.3 1.6-20.9 5.6-29.3 12.2l-5.1 4.1-.3-6.3-.3-6.2-26.7-.3-26.8-.2v193h54v-53.3c0-58 .1-59.7 5.7-70 3.6-6.5 12.7-14.7 18.9-17 6.7-2.5 19.5-3.2 26.2-1.4l5.2 1.4v-55.5l-2.2-.6c-2.5-.6-14.4-.6-19.3.1m110.6.4c-26 3-51.2 17.1-66.6 37.3-21.1 27.8-27 61.7-16.1 93.8 16.6 49 68.7 77.6 121.8 66.8 21.9-4.5 38.7-13.1 53-27.1 4.8-4.8 8.8-9.1 8.8-9.6 0-.6-9.5-8.3-21.1-17.2l-21.1-16.3-5.9 5.7c-8.9 8.6-21.9 13.6-34.8 13.5-3.7-.1-5.3-.7-8.3-3.4l-3.7-3.3 50.9-36.4c28-20 51-36.8 51-37.2 0-.5-1.6-4.2-3.5-8.3-11.9-25.9-36.3-47.3-62.5-54.7-14.9-4.3-27-5.3-41.9-3.6m22.4 54.4c6.7 1.8 16 6.5 15.6 8-.2.5-15.9 12.1-34.9 25.7-28.9 20.6-34.8 24.5-35.4 23-1.5-3.8-.8-20 1.1-26.1 7.1-22.9 30.9-36.5 53.6-30.6m68.5-51.1c0 .7 104.3 197.7 104.5 197.4.1-.2 9.8-20.4 21.5-45.1 11.7-24.6 21.6-44.7 22-44.7.3 0 10.2 20.2 22 45l21.5 44.9 2.1-4.2c1.2-2.3 21.6-44.3 45.3-93.4 42.2-87.1 43.2-89.3 42.9-94.5l-.3-5.3h-47l-20 45.7c-11 25.2-20.3 45.8-20.6 45.8-.4 0-10.5-20.6-22.6-45.8l-22-45.7-25.6-.3c-14.2-.1-25.7.1-25.6.5 0 .5 5.8 12.9 12.8 27.8l12.8 27-2.3 5c-1.2 2.7-5.2 11.3-8.9 19l-6.7 14-23.4-46.8-23.4-46.7h-29.5c-16.2 0-29.5.2-29.5.4m417.7 195.7c-9.8 2.4-21.4 8.3-29.9 15.3-21.8 18.1-27.8 45.9-15.3 71.4 8.7 17.6 26.3 30.1 50.3 35.8 12.2 2.9 17.4 5.9 19.6 11.5 2.1 5.1 2 6.4-.4 11.5-2.6 5.2-6.8 7.4-14.2 7.4-6.7 0-14-2.6-18.6-6.6l-3.6-3.1-24.3 16.1c-13.3 8.9-24.3 16.5-24.3 16.9 0 1.4 9.3 10.8 15.4 15.4 8.3 6.2 19.8 11.8 29.8 14.5 7.1 2 10.8 2.3 25.8 2.3 15.3 0 18.5-.3 25.4-2.3 23.1-6.7 40.3-22.1 48.1-43.2 2.4-6.3 2.9-9.5 3.2-20 .8-21.2-3.7-34-16.2-46.5-10.7-10.7-23.1-16.6-43.9-21-15.8-3.4-20.2-5.4-22.2-10-1.2-2.9-1.3-4.4-.4-7 1.8-5.6 4.3-7 12-7 6.4 0 7.2.3 12.7 4.1l5.9 4.2 20.4-13.5c11.3-7.5 20.7-13.7 20.8-13.8.2-.2-1.4-2.8-3.6-5.8-10.1-13.6-25.3-23.2-42.4-26.8-11.6-2.3-20.1-2.3-30.1.2m-775.7 21.3c-12.7 2.4-23.2 6.9-29.2 12.5l-2.8 2.5V1582h-50v178h50v-47.8c0-29.2.4-49.4 1.1-52.2 2.8-12.1 12.5-24.7 22.6-29.2 6.5-2.9 15.4-3.4 23.3-1.4 12 3.1 19.7 10.1 24.3 22.3 2.1 5.6 2.2 7.3 2.5 57l.3 51.3h49.9v-47.9c0-45.8.1-48.2 2.1-54.7 1.1-3.7 2.8-7.9 3.7-9.3 8.7-13.8 21.9-21.1 35.9-19.8 15.2 1.5 26.2 10.8 31.6 27 2 5.9 2.1 8.5 2.5 55.4l.3 49.3h49.1l-.5-53.3c-.4-49-.6-53.9-2.4-62.2-9.2-40.5-33.6-62.9-71.8-66.1-22.9-1.9-49.7 7-63.7 21.1l-6.3 6.3-7.6-7.3c-12.7-12.1-29.2-18.8-49-19.9-5.7-.3-12 0-15.9.8m382.5-.3c-12.7 1.8-24.6 6.5-30.9 11.9-1.8 1.7-3.6 3-4 3-.3 0-.6-2.7-.6-6v-6h-49v178h49v-46.3c0-36.5.3-47.6 1.5-53.1 3.5-16.5 16.1-28.6 33-31.7 20.7-3.8 37.5 6.1 44.1 26.1 1.6 4.9 1.8 10.6 2.2 55.2l.3 49.8h48.9v-47.8c0-36.4-.4-49.9-1.5-57.2-3.5-23.2-12.6-41.5-27.8-55.6-9.1-8.4-17.7-13.7-28.1-16.9-13.3-4.3-24.2-5.2-37.1-3.4M1473 1671v89h50v-178h-50z"/><path fill="#a86e43" d="M1719.5 1715.5c0 24.7.1 34.7.2 22.2.2-12.6.2-32.8 0-45-.1-12.2-.2-2-.2 22.8m286.5-14.1c0 .2.8 1 1.8 1.7 1.5 1.3 1.6 1.2.3-.4s-2.1-2.1-2.1-1.3"/><path fill="#8b5a38" d="M1098.5 1413c0 78.4.1 110.4.2 71.2.2-39.1.2-103.3 0-142.5-.1-39.1-.2-7.1-.2 71.3m492.4 179.7c-1.3 1.6-1.2 1.7.4.4.9-.7 1.7-1.5 1.7-1.7 0-.8-.8-.3-2.1 1.3m-284.9 4.7c0 .2.8 1 1.8 1.7 1.5 1.3 1.6 1.2.3-.4s-2.1-2.1-2.1-1.3m-35 39c0 .2.8 1 1.8 1.7 1.5 1.3 1.6 1.2.3-.4s-2.1-2.1-2.1-1.3m318.1 31.2c0 1.1.3 1.4.6.6.3-.7.2-1.6-.1-1.9-.3-.4-.6.2-.5 1.3"/><path fill="#9c663f" d="M1309.5 1459.5v96h53.5l-26.5-.2-26.5-.3-.3-95.8-.2-95.7zm236.8-38c0 .8.4 1.2.9.9s.6-1 .3-1.5c-.9-1.3-1.2-1.1-1.2.6m-252.1 38.5c0 1.4.2 1.9.5 1.2.2-.6.2-1.8 0-2.5-.3-.6-.5-.1-.5 1.3m-181.9 95.7c7.6.2 19.8.2 27 0 7.3-.1 1.1-.3-13.8-.3-14.8 0-20.8.2-13.2.3m427.2 115.3c0 49.2.1 69.4.2 44.7.2-24.6.2-64.8 0-89.5-.1-24.6-.2-4.4-.2 44.8m130 44c0 25 .1 35.3.2 22.7.2-12.5.2-32.9 0-45.5-.1-12.5-.2-2.2-.2 22.8m435.7-20c0 1.4.2 1.9.5 1.2.2-.6.2-1.8 0-2.5-.3-.6-.5-.1-.5 1.3m-80.4 72.7c.7.3 1.6.2 1.9-.1.4-.3-.2-.6-1.3-.5-1.1 0-1.4.3-.6.6"/><path fill="#93603b" d="M2105.2 1700c0 1.4.2 1.9.5 1.2.2-.6.2-1.8 0-2.5-.3-.6-.5-.1-.5 1.3"/><path fill="#8f5d3a" d="M1239.1 1459.6c0 1.1.3 1.4.6.6.3-.7.2-1.6-.1-1.9-.3-.4-.6.2-.5 1.3m350.2 128.4c0 3.6.2 5 .4 3.2.2-1.7.2-4.7 0-6.5-.2-1.7-.4-.3-.4 3.3m100.7 11.4c0 .2.8 1 1.8 1.7 1.5 1.3 1.6 1.2.3-.4s-2.1-2.1-2.1-1.3m331.1 20.2c0 1.1.3 1.4.6.6.3-.7.2-1.6-.1-1.9-.3-.4-.6.2-.5 1.3m-675.2 20.1c-1.3 1.6-1.2 1.7.4.4.9-.7 1.7-1.5 1.7-1.7 0-.8-.8-.3-2.1 1.3m243.6 74.8c0 25.3.1 35.5.2 22.7.2-12.8.2-33.5 0-46-.1-12.5-.2-2-.2 23.3"/><path fill="#b97a4a" d="M1599.9 1531.7c-1.3 1.6-1.2 1.7.4.4s2.1-2.1 1.3-2.1c-.2 0-1 .8-1.7 1.7"/><path fill="#debda1" d="M1334.5 1715.5c0 24.7.1 34.7.2 22.2.2-12.6.2-32.8 0-45-.1-12.2-.2-2-.2 22.8m501.8 2.2c1.5.2 3.7.2 5 0 1.2-.2 0-.4-2.8-.4-2.7 0-3.8.2-2.2.4"/><path fill="#eedac6" d="M1210.3 1587.5c0 3.3.2 4.5.4 2.7s.2-4.5 0-6-.4 0-.4 3.3m109.1 11.7-1.9 2.3 2.3-1.9c1.2-1.1 2.2-2.1 2.2-2.3 0-.8-.8-.2-2.6 1.9m114.1-.2c1 1.1 2 2 2.3 2s-.3-.9-1.3-2-2-2-2.3-2 .3.9 1.3 2m-223 116.5c0 24.7.1 34.7.2 22.2.2-12.6.2-32.8 0-45-.1-12.2-.2-2-.2 22.8"/><path fill="#d9b494" d="M1980.9 1578.7c-1.3 1.6-1.2 1.7.4.4s2.1-2.1 1.3-2.1c-.2 0-1 .8-1.7 1.7m-457.4 92.3c0 49.2.1 69.4.2 44.7.2-24.6.2-64.8 0-89.5-.1-24.6-.2-4.4-.2 44.8m441.8-53.5c0 2.2.2 3 .4 1.7.2-1.2.2-3 0-4-.3-.9-.5.1-.4 2.3"/><path fill="#c9976f" d="M1459.5 1715.5c0 24.7.1 34.7.2 22.2.2-12.6.2-32.8 0-45-.1-12.2-.2-2-.2 22.8"/><path fill="#e8d1b9" d="M1159.4 1594c0 6.3.1 8.9.3 5.7.2-3.1.2-8.3 0-11.5-.2-3.1-.3-.5-.3 5.8m0 23c0 6.3.1 8.9.3 5.7.2-3.1.2-8.3 0-11.5-.2-3.1-.3-.5-.3 5.8m.1 77.5c0 36.3.1 51 .2 32.7.2-18.4.2-48.1 0-66-.1-18-.2-3-.2 33.3"/><path fill="#e3c7ad" d="M1420.1 1369.6c0 1.1.3 1.4.6.6.3-.7.2-1.6-.1-1.9-.3-.4-.6.2-.5 1.3m0 4c0 1.1.3 1.4.6.6.3-.7.2-1.6-.1-1.9-.3-.4-.6.2-.5 1.3m.3 20.4c0 10.2.2 14.3.3 9.2.2-5 .2-13.4 0-18.5-.1-5-.3-.9-.3 9.3m-136.9 321.5c0 24.7.1 34.7.2 22.2.2-12.6.2-32.8 0-45-.1-12.2-.2-2-.2 22.8"/><path fill="#c48d63" d="M1522.8 1505.7c.6.2 1.8.2 2.5 0 .6-.3.1-.5-1.3-.5s-1.9.2-1.2.5m-350.5 255c7 .2 18.4.2 25.5 0 7-.1 1.2-.3-12.8-.3s-19.8.2-12.7.3m124 0c7 .2 18.4.2 25.5 0 7-.1 1.2-.3-12.8-.3s-19.8.2-12.7.3m126 0c7.1.2 18.3.2 25 0 6.7-.1 1-.3-12.8-.3-13.7 0-19.2.2-12.2.3m64 0c7.1.2 18.3.2 25 0 6.7-.1 1-.3-12.8-.3-13.7 0-19.2.2-12.2.3m66 0c7.1.2 18.3.2 25 0 6.7-.1 1-.3-12.8-.3-13.7 0-19.2.2-12.2.3m130 0c7.1.2 18.3.2 25 0 6.7-.1 1-.3-12.8-.3-13.7 0-19.2.2-12.2.3"/><path fill="#f3e4d2" d="M1937.5 1622.5c0 80.3.1 113.3.2 73.3.2-39.9.2-105.6 0-146-.1-40.3-.2-7.6-.2 72.7m-904.7 164.2c.6.2 1.8.2 2.5 0 .6-.3.1-.5-1.3-.5s-1.9.2-1.2.5"/><path fill="#d3aa88" d="M1735.1 1672.6c0 1.1.3 1.4.6.6.3-.7.2-1.6-.1-1.9-.3-.4-.6.2-.5 1.3"/><path fill="#ac7145" d="M1881.5 1538.5c0 25.3.1 35.5.2 22.7.2-12.8.2-33.5 0-46-.1-12.5-.2-2-.2 23.3m-47.7 28.2c.7.3 1.6.2 1.9-.1.4-.3-.2-.6-1.3-.5-1.1 0-1.4.3-.6.6m47.6 195.3.1 6.5h55l-27.2-.2-27.2-.3-.4-6.3-.3-6.2z"/><path fill="#a46b42" d="M1881.3 1485c0 4.7.2 6.6.4 4.2.2-2.3.2-6.1 0-8.5-.2-2.3-.4-.4-.4 4.3M1121 1603.4c0 .2.8 1 1.8 1.7 1.5 1.3 1.6 1.2.3-.4s-2.1-2.1-2.1-1.3m-71.1 35.3c-1.3 1.6-1.2 1.7.4.4.9-.7 1.7-1.5 1.7-1.7 0-.8-.8-.3-2.1 1.3m-33 37c-1.3 1.6-1.2 1.7.4.4s2.1-2.1 1.3-2.1c-.2 0-1 .8-1.7 1.7m32.1-1.3c0 .2.8 1 1.8 1.7 1.5 1.3 1.6 1.2.3-.4s-2.1-2.1-2.1-1.3m39.9 82.3c-1.3 1.6-1.2 1.7.4.4s2.1-2.1 1.3-2.1c-.2 0-1 .8-1.7 1.7"/><path fill="#b57748" d="M1877.9 1757.7c-1.3 1.6-1.2 1.7.4.4.9-.7 1.7-1.5 1.7-1.7 0-.8-.8-.3-2.1 1.3"/></svg>